<svg xmlns="http://www.w3.org/2000/svg" viewBox="0 0 406.56 37.7"><g id="Layer_2" data-name="Layer 2"><g id="Layer_1-2" data-name="Layer 1"><path d="M19.35,29.66c-6.66,0-9.93-5.32-9.93-10.88C9.42,12.29,13.67,8,19.35,8c3.46,0,7.29,1.44,8.9,4.72l7.58-4C33.16,3,26.71,0,19.35,0,6.25,0,0,9.74,0,18.78,0,29.57,8.48,37.7,19.35,37.7c6.89,0,13-2.8,16.61-8.81l-7.5-3.82C26.77,28.35,23,29.66,19.35,29.66Z"/><path d="M62.88,18.64c0,7.6-2.41,11.45-8,11.45-4.25,0-6.1-2.46-6.1-7.5V.91H39.35V23.15c0,9.93,4,14.55,13.15,14.55,5.67,0,7.87-2.42,9.36-4.24l.15-.19L63.66,37h8.63V.91H62.88Z"/><path d="M96.56,15.59c-7.08-1.25-10.24-2.73-10.24-4.78s2.4-3.33,6.1-3.33a10.44,10.44,0,0,1,8.2,3.47l5.95-5C103.43,2.11,98.42,0,92.42,0a18,18,0,0,0-11,3.23,9.66,9.66,0,0,0-4,7.72c0,7,6.83,9.64,12.56,10.67,5.48,1,8.65,2,8.65,4.51,0,2.64-3.21,3.82-6.38,3.82-3.86,0-7.08-1.72-8.66-4.6l-7.93,3.76c2.09,5,9,8.59,16.38,8.59,11,0,16-5.89,16-11.36C108,20.33,104.48,17,96.56,15.59Z"/><polygon points="257.07 0.69 250.72 26.09 244.16 0.69 233.29 0.69 226.73 26.09 220.38 0.69 210.57 0.69 221.37 37.01 231.82 37.01 238.73 11.37 245.63 37.01 256.09 37.01 266.89 0.69 257.07 0.69"/><path d="M298.65,12.13c0-7.71-5.45-12.13-15-12.13C277,0,271.26,2.37,267.93,6.5l5.35,5.28a12.52,12.52,0,0,1,9.57-4.16c4.48,0,6.94,1.45,6.94,4.09,0,2.13-1.53,3.54-9,3.54-13.31,0-14.34,8.54-14.34,11.16,0,7.07,4.84,11.29,13,11.29,4.82,0,8.75-1.55,10.56-4.37l.22-.34,0,.4A10.92,10.92,0,0,0,291,37h8.75c-.86-1.52-1.08-4.16-1.08-5.89Zm-8.86,11.23c0,4.22-3.56,7.28-8.46,7.28-3.73,0-5.62-1.54-5.62-4.58,0-2.61,2.23-4.3,5.69-4.3,5.65,0,7.05-.39,8.14-1.49l.25-.24Z"/><path d="M363,0c-12.06,0-18.37,9.48-18.37,18.85,0,6.13,2.13,11.16,6.15,14.53A19.28,19.28,0,0,0,363,37.7c7.05,0,12.68-2.74,15.88-7.71l-7.11-4.56A9.52,9.52,0,0,1,363,30.09c-5,0-8.42-2.88-9.3-7.89l0-.17h27.61V18.78C381.31,9.43,375.63,0,363,0ZM354,14.7l.07-.19c1.48-4.51,4.62-6.89,9.08-6.89a8.53,8.53,0,0,1,8.8,6.9l0,.18Z"/><path d="M318.35,30c-3.31,0-4.79-1.54-4.79-5V.91h-9.42V25.85c0,7.75,4.22,11.85,12.2,11.85a29.55,29.55,0,0,0,5.8-.56l-.37-7.69A10.33,10.33,0,0,1,318.35,30Z"/><path d="M339.34,30c-3.31,0-4.79-1.54-4.79-5V.91h-9.42V25.85c0,7.75,4.22,11.85,12.2,11.85a29.55,29.55,0,0,0,5.8-.56l-.37-7.69A10.33,10.33,0,0,1,339.34,30Z"/><path d="M406.27.51a11,11,0,0,0-2.46-.29c-4,0-8.38,1.65-10.68,5.89l.07-5.2h-8.64V37h9.35V21.87c0-8.14,3.33-13.48,9.37-13.48a11.92,11.92,0,0,1,3.28.46Z"/><path d="M159.18,0c-12.05,0-18.36,9.48-18.36,18.85,0,6.13,2.12,11.16,6.14,14.53a19.32,19.32,0,0,0,12.29,4.32c7.06,0,12.69-2.74,15.89-7.71L168,25.43a9.54,9.54,0,0,1-8.78,4.66c-5,0-8.41-2.88-9.29-7.89l0-.17h27.62V18.78C177.55,9.43,171.87,0,159.18,0Zm-8.93,14.7.06-.19c1.48-4.51,4.62-6.89,9.08-6.89a8.53,8.53,0,0,1,8.81,6.9l0,.18Z"/><path d="M200.05.22c-4,0-8.38,1.65-10.68,5.89l.07-5.2H180.8V37h9.35V21.87c0-8.14,3.32-13.48,9.36-13.48a11.87,11.87,0,0,1,3.28.46L202.51.51A11,11,0,0,0,200.05.22Z"/><path d="M125.1.19,115.68.3V8.89H110.3v7.75h5.38v9.21c0,7.75,4.22,11.85,12.19,11.85a39.28,39.28,0,0,0,8-1.15l-.06-7.9a18.35,18.35,0,0,1-5.91,1.3c-3.31,0-4.78-1.54-4.78-5V16.64h12.07V8.89H125.1Z"/></g></g></svg>